<svg xmlns="http://www.w3.org/2000/svg" viewBox="0 0 64 64">
  <defs>
    <linearGradient id="cakeTop" x1="0" y1="0" x2="1" y2="1">
      <stop offset="0%" stop-color="#fff1e6" />
      <stop offset="100%" stop-color="#ffd7ba" />
    </linearGradient>
    <linearGradient id="cakeBase" x1="0" y1="0" x2="1" y2="1">
      <stop offset="0%" stop-color="#f07a3b" />
      <stop offset="100%" stop-color="#c74e1f" />
    </linearGradient>
  </defs>
  <rect width="64" height="64" rx="16" fill="#1b3c6d" />
  <path d="M17 28c4 0 4-4 7-4s3 4 6 4 3-4 6-4 3 4 6 4 3-4 5-4 3 4 7 4v4H17z" fill="url(#cakeTop)" />
  <path d="M18 32h28c1.7 0 3 1.3 3 3v9c0 2.8-2.2 5-5 5H20c-2.8 0-5-2.2-5-5v-9c0-1.7 1.3-3 3-3z" fill="url(#cakeBase)" />
  <path d="M24 32v17M32 32v17M40 32v17" stroke="#ffd9c3" stroke-width="2.5" stroke-linecap="round" opacity=".75" />
  <path d="M30 18c0-2 1.4-3.6 2-4 1 1 2 2.3 2 4.2 0 2.4-1.6 3.6-2 3.8-.7-.3-2-1.6-2-4z" fill="#ffd166" />
  <path d="M32 22v5" stroke="#fff5c2" stroke-width="2" stroke-linecap="round" />
</svg>
